<?xml version="1.0" encoding="UTF-8"?>
<svg width="132px" height="51px" viewBox="0 0 132 51" version="1.1" xmlns="http://www.w3.org/2000/svg" xmlns:xlink="http://www.w3.org/1999/xlink">
    <title>EF0E11F7-1040-4405-B769-221C9FD0331B</title>
    <g id="Alerts" stroke="none" stroke-width="1" fill="none" fill-rule="evenodd">
        <g id="CVD-2.0---Alerts---With-Expanded-Alert" transform="translate(-1040.000000, -895.000000)" fill-rule="nonzero">
            <g id="Graphics/Mobile-Footer" transform="translate(248.000000, 855.000000)">
                <g id="Group-2" transform="translate(97.000000, 31.000000)">
                    <g id="Group-2" transform="translate(695.000000, 8.999811)">
                        <g id="Group" transform="translate(18.174776, 15.804877)" fill="#000000">
                            <path d="M6.69921875,3.23242187 C5.55989583,3.23242187 4.67773438,3.66048177 4.05273438,4.51660156 C3.42773438,5.37272135 3.11523438,6.56575521 3.11523438,8.09570312 C3.11523438,11.2792969 4.30989583,12.8710937 6.69921875,12.8710937 C7.70182292,12.8710937 8.91601562,12.6204427 10.3417969,12.1191406 L10.3417969,14.6582031 C9.16992188,15.1464844 7.86132812,15.390625 6.41601562,15.390625 C4.33919271,15.390625 2.75065104,14.7607422 1.65039062,13.5009766 C0.550130208,12.2412109 0,10.4329427 0,8.07617187 C0,6.59179687 0.270182292,5.29134115 0.810546875,4.17480469 C1.35091146,3.05826823 2.12727865,2.20214844 3.13964844,1.60644531 C4.15201823,1.01074219 5.33854167,0.712890625 6.69921875,0.712890625 C8.0859375,0.712890625 9.47916667,1.04817708 10.8789062,1.71875 L9.90234375,4.1796875 C9.36848958,3.92578125 8.83138021,3.70442708 8.29101562,3.515625 C7.75065104,3.32682292 7.22005208,3.23242187 6.69921875,3.23242187 Z" id="Path"></path>
                            <path d="M19.9382813,4.07226562 C20.3419271,4.07226562 20.6772135,4.1015625 20.9441406,4.16015625 L20.7195313,6.953125 C20.4786458,6.88802083 20.1856771,6.85546875 19.840625,6.85546875 C18.8901042,6.85546875 18.1495443,7.09960937 17.6189453,7.58789062 C17.0883464,8.07617187 16.8230469,8.75976562 16.8230469,9.63867187 L16.8230469,15.1953125 L13.8445313,15.1953125 L13.8445313,4.27734375 L16.1003906,4.27734375 L16.5398438,6.11328125 L16.6863281,6.11328125 C17.0248698,5.50130208 17.4822266,5.00813802 18.0583984,4.63378906 C18.6345703,4.2594401 19.2611979,4.07226562 19.9382813,4.07226562 Z" id="Path"></path>
                            <path d="M27.7476562,6.19140625 C27.1161458,6.19140625 26.6213542,6.39160156 26.2632812,6.79199219 C25.9052083,7.19238281 25.7001302,7.76041667 25.6480469,8.49609375 L29.8277344,8.49609375 C29.8147135,7.76041667 29.6226562,7.19238281 29.2515625,6.79199219 C28.8804687,6.39160156 28.3791667,6.19140625 27.7476562,6.19140625 Z M28.1675781,15.390625 C26.4097656,15.390625 25.0360677,14.905599 24.0464844,13.9355469 C23.056901,12.9654948 22.5621094,11.5917969 22.5621094,9.81445312 C22.5621094,7.98502604 23.0194661,6.57063802 23.9341797,5.57128906 C24.8488932,4.5719401 26.1135417,4.07226562 27.728125,4.07226562 C29.2710937,4.07226562 30.4722656,4.51171875 31.3316406,5.390625 C32.1910156,6.26953125 32.6207031,7.48372396 32.6207031,9.03320312 L32.6207031,10.4785156 L25.5796875,10.4785156 C25.6122396,11.3248698 25.8628906,11.9856771 26.3316406,12.4609375 C26.8003906,12.9361979 27.4579427,13.1738281 28.3042969,13.1738281 C28.961849,13.1738281 29.5835937,13.1054687 30.1695312,12.96875 C30.7554687,12.8320312 31.3674479,12.6139323 32.0054687,12.3144531 L32.0054687,14.6191406 C31.4846354,14.8795573 30.9279948,15.0732422 30.3355469,15.2001953 C29.743099,15.3271484 29.0204427,15.390625 28.1675781,15.390625 Z" id="Shape"></path>
                            <path d="M39.1996094,15.390625 C37.9170573,15.390625 36.9095703,14.8925781 36.1771484,13.8964844 C35.4447266,12.9003906 35.0785156,11.5201823 35.0785156,9.75585938 C35.0785156,7.96549479 35.451237,6.57063802 36.1966797,5.57128906 C36.9421224,4.5719401 37.9691406,4.07226562 39.2777344,4.07226562 C40.6514323,4.07226562 41.6996094,4.60611979 42.4222656,5.67382812 L42.5199219,5.67382812 C42.3701823,4.86002604 42.2953125,4.13411458 42.2953125,3.49609375 L42.2953125,0 L45.2835938,0 L45.2835938,15.1953125 L42.9984375,15.1953125 L42.4222656,13.7792969 L42.2953125,13.7792969 C41.6182292,14.8535156 40.5863281,15.390625 39.1996094,15.390625 Z M40.2445313,13.0175781 C41.00625,13.0175781 41.5645182,12.796224 41.9193359,12.3535156 C42.2741536,11.9108073 42.4678385,11.1588542 42.5003906,10.0976562 L42.5003906,9.77539062 C42.5003906,8.60351562 42.3197266,7.76367188 41.9583984,7.25585938 C41.5970703,6.74804688 41.0095052,6.49414062 40.1957031,6.49414062 C39.5316406,6.49414062 39.0156901,6.77571615 38.6478516,7.33886719 C38.280013,7.90201823 38.0960938,8.72070312 38.0960938,9.79492188 C38.0960938,10.8691406 38.2816406,11.6748047 38.6527344,12.2119141 C39.0238281,12.7490234 39.5544271,13.0175781 40.2445313,13.0175781 Z" id="Shape"></path>
                            <path d="M48.971875,1.45507812 C48.971875,0.485026042 49.5122396,0 50.5929688,0 C51.6736979,0 52.2140625,0.485026042 52.2140625,1.45507812 C52.2140625,1.91731771 52.0789714,2.27701823 51.8087891,2.53417969 C51.5386068,2.79134115 51.1333333,2.91992188 50.5929688,2.91992188 C49.5122396,2.91992188 48.971875,2.43164062 48.971875,1.45507812 Z M52.0773437,15.1953125 L49.0988281,15.1953125 L49.0988281,4.27734375 L52.0773437,4.27734375 L52.0773437,15.1953125 Z" id="Shape"></path>
                            <path d="M60.5019531,13.0175781 C61.0227865,13.0175781 61.6477865,12.9036458 62.3769531,12.6757812 L62.3769531,14.8925781 C61.6347656,15.2246094 60.7233073,15.390625 59.6425781,15.390625 C58.4511719,15.390625 57.5836589,15.0895182 57.0400391,14.4873047 C56.4964193,13.8850911 56.2246094,12.9817708 56.2246094,11.7773437 L56.2246094,6.51367187 L54.7988281,6.51367187 L54.7988281,5.25390625 L56.4394531,4.2578125 L57.2988281,1.953125 L59.203125,1.953125 L59.203125,4.27734375 L62.2597656,4.27734375 L62.2597656,6.51367187 L59.203125,6.51367187 L59.203125,11.7773437 C59.203125,12.2005208 59.3219401,12.5130208 59.5595703,12.7148437 C59.7972005,12.9166667 60.1113281,13.0175781 60.5019531,13.0175781 Z" id="Path"></path>
                            <path d="M73.6628906,0.91796875 L76.7195312,0.91796875 L71.8660156,15.1953125 L68.5652344,15.1953125 L63.7214844,0.91796875 L66.778125,0.91796875 L69.4636719,9.4140625 C69.6134115,9.91536458 69.7680339,10.4996745 69.9275391,11.1669922 C70.0870443,11.8343099 70.1863281,12.2981771 70.2253906,12.5585938 C70.2970052,11.9596354 70.5411458,10.9114583 70.9578125,9.4140625 L73.6628906,0.91796875 Z" id="Path"></path>
                            <path d="M78.8550781,1.45507812 C78.8550781,0.485026042 79.3954427,0 80.4761719,0 C81.556901,0 82.0972656,0.485026042 82.0972656,1.45507812 C82.0972656,1.91731771 81.9621745,2.27701823 81.6919922,2.53417969 C81.4218099,2.79134115 81.0165365,2.91992188 80.4761719,2.91992188 C79.3954427,2.91992188 78.8550781,2.43164062 78.8550781,1.45507812 Z M81.9605469,15.1953125 L78.9820312,15.1953125 L78.9820312,4.27734375 L81.9605469,4.27734375 L81.9605469,15.1953125 Z" id="Shape"></path>
                            <path d="M90.3070313,6.19140625 C89.6755208,6.19140625 89.1807292,6.39160156 88.8226563,6.79199219 C88.4645833,7.19238281 88.2595052,7.76041667 88.2074219,8.49609375 L92.3871094,8.49609375 C92.3740885,7.76041667 92.1820313,7.19238281 91.8109375,6.79199219 C91.4398438,6.39160156 90.9385417,6.19140625 90.3070313,6.19140625 Z M90.7269531,15.390625 C88.9691406,15.390625 87.5954427,14.905599 86.6058594,13.9355469 C85.616276,12.9654948 85.1214844,11.5917969 85.1214844,9.81445312 C85.1214844,7.98502604 85.5788411,6.57063802 86.4935547,5.57128906 C87.4082682,4.5719401 88.6729167,4.07226562 90.2875,4.07226562 C91.8304688,4.07226562 93.0316406,4.51171875 93.8910156,5.390625 C94.7503906,6.26953125 95.1800781,7.48372396 95.1800781,9.03320312 L95.1800781,10.4785156 L88.1390625,10.4785156 C88.1716146,11.3248698 88.4222656,11.9856771 88.8910156,12.4609375 C89.3597656,12.9361979 90.0173177,13.1738281 90.8636719,13.1738281 C91.521224,13.1738281 92.1429688,13.1054687 92.7289063,12.96875 C93.3148438,12.8320312 93.9268229,12.6139323 94.5648438,12.3144531 L94.5648438,14.6191406 C94.0440104,14.8795573 93.4873698,15.0732422 92.8949219,15.2001953 C92.302474,15.3271484 91.5798177,15.390625 90.7269531,15.390625 Z" id="Shape"></path>
                            <path d="M106.876172,15.1953125 L106.036328,11.3769531 L104.903516,6.55273438 L104.835156,6.55273438 L102.842969,15.1953125 L99.6398437,15.1953125 L96.534375,4.27734375 L99.503125,4.27734375 L100.762891,9.11132813 C100.964714,9.97721354 101.169792,11.171875 101.378125,12.6953125 L101.436719,12.6953125 C101.46276,12.2005208 101.576693,11.4160156 101.778516,10.3417969 L101.934766,9.51171875 L103.282422,4.27734375 L106.563672,4.27734375 L107.842969,9.51171875 C107.86901,9.65494792 107.909701,9.86653646 107.965039,10.1464844 C108.020378,10.4264323 108.074089,10.7242839 108.126172,11.0400391 C108.178255,11.3557943 108.225456,11.6650391 108.267773,11.9677734 C108.310091,12.2705078 108.334505,12.5130208 108.341016,12.6953125 L108.399609,12.6953125 C108.458203,12.2265625 108.56237,11.5836589 108.712109,10.7666016 C108.861849,9.94954427 108.969271,9.39778646 109.034375,9.11132813 L110.342969,4.27734375 L113.262891,4.27734375 L110.118359,15.1953125 L106.876172,15.1953125 Z" id="Path"></path>
                        </g>
                        <path d="M12.4031552,44.304456 C13.2451638,44.8055315 14.3339486,44.5291507 14.8350242,43.6871421 C14.8430453,43.6736635 14.8508872,43.6600792 14.858548,43.6463926 L17.9377293,38.1452122 C18.4332974,37.2598439 18.1339013,36.1408639 17.2624183,35.621266 C16.4212559,35.1197459 15.3327966,35.3950805 14.8312766,36.2362429 C14.8229442,36.2502182 14.8148045,36.2643076 14.8068599,36.278507 L11.7271278,41.7829082 C11.2320509,42.6677583 11.5318349,43.7859372 12.4031552,44.304456 Z M8.97425161,22.2868082 L2.9823869,22.2868082 C1.95329797,22.2868082 1.11905656,23.1210496 1.11905656,24.1501385 C1.11905656,25.1792275 1.95329797,26.0134689 2.9823869,26.0134689 L8.97767363,26.0134689 C10.0058185,26.0134689 10.8392945,25.1799928 10.8392945,24.151848 C10.8392945,24.1512782 10.8392943,24.1507084 10.8392938,24.1501385 C10.8383485,23.120773 10.0036176,22.2868082 8.97425161,22.2868082 Z M10.0657013,30.1041939 L4.82702797,33.2227131 C3.9422286,33.7494235 3.63788706,34.8850049 4.14069692,35.7836016 C4.62644128,36.6516997 5.72394746,36.9616586 6.59204556,36.4759143 C6.60608841,36.4680566 6.62002533,36.4600111 6.63385256,36.4517799 L11.8725259,33.3332607 C12.7573252,32.8065503 13.0616668,31.670969 12.5588569,30.7723722 C12.0731126,29.9042741 10.9756064,29.5943152 10.1075083,30.0800596 C10.0934654,30.0879172 10.0795285,30.0959628 10.0657013,30.1041939 Z M11.8750604,14.9668728 L6.63402157,11.8482132 C5.77900888,11.3394413 4.67344298,11.6201249 4.16467104,12.4751375 C4.1564957,12.4888765 4.14850362,12.5027238 4.14069692,12.5166755 C3.63788706,13.4152722 3.9422286,14.5508536 4.82702797,15.077564 L10.0649828,18.1956555 C10.9208286,18.7051301 12.0276394,18.4243409 12.5371141,17.5684952 C12.5451076,17.5550673 12.5529262,17.541536 12.5605679,17.5279048 C13.0641893,16.6295593 12.7601062,15.4935159 11.8750604,14.9668728 Z M34.9662194,3.99758563 C34.1262351,3.49622003 33.0388561,3.77072476 32.5374905,4.6107091 C32.5290675,4.62482097 32.5208413,4.63904938 32.5128143,4.65339021 L29.4329152,10.1558529 C28.9377095,11.0405738 29.2373899,12.1587533 30.1086673,12.6772466 C30.950569,13.1782585 32.0392156,12.9019128 32.5402275,12.0600111 C32.548286,12.0464697 32.5561636,12.0328216 32.5638583,12.0190703 L35.6407389,6.5203625 C36.1358804,5.63549277 35.8368999,4.51727302 34.9662194,3.99758563 Z M11.7266851,6.51593196 L14.8070255,12.0191832 C15.2855957,12.8741837 16.3666684,13.1793406 17.2216688,12.7007704 C17.2353554,12.6931096 17.2489397,12.6852676 17.2624183,12.6772466 C18.1336216,12.1587974 18.4331223,11.0406169 17.9376933,10.15612 L14.8548846,4.65233473 C14.3765306,3.79832208 13.296434,3.49379057 12.4424213,3.97214457 C12.4286575,3.97985403 12.4149972,3.98774692 12.4014442,3.99582111 C11.5310003,4.51438513 11.2318115,5.63180449 11.7266851,6.51593196 Z M23.6838318,10.9056711 C24.6817135,10.9056711 25.4906564,10.0967282 25.4906564,9.09884656 L25.4906564,2.68650802 C25.4906564,1.68862635 24.6817135,0.879683433 23.6838318,0.879683433 C22.6859501,0.879683433 21.8770072,1.68862635 21.8770072,2.68650802 L21.8770072,9.09884656 C21.8770072,10.0967282 22.6859501,10.9056711 23.6838318,10.9056711 Z" id="TU-Icon---Load-wheel" fill="#002B54" transform="translate(18.499281, 22.716975) rotate(-3.000000) translate(-18.499281, -22.716975) "></path>
                        <path d="M39.9234155,42.8659573 C39.9234155,45.2709968 39.2927461,47.0894811 38.0314075,48.3214103 C36.7700689,49.5533395 34.9172735,50.1693041 32.4730214,50.1693041 L29.0419189,50.1693041 L29.0419189,35.8370987 L32.9141632,35.8370987 C35.2015649,35.8370987 36.941624,36.4350909 38.1343406,37.6310752 C39.3270572,38.8270595 39.9234155,40.5720202 39.9234155,42.8659573 Z M38.8352658,42.9051699 C38.8352658,40.8530438 38.314065,39.3090477 37.2716634,38.2731815 C36.2292618,37.2373153 34.6983365,36.7193822 32.6788876,36.7193822 L30.0418402,36.7193822 L30.0418402,49.2870206 L32.4142025,49.2870206 C36.6949114,49.2870206 38.8352658,47.159737 38.8352658,42.9051699 Z" id="Shape" fill="#000000"></path>
                        <path d="M50.1222741,50.1693041 L49.8771954,48.4831623 L49.7987702,48.4831623 C49.2628647,49.1693828 48.7122544,49.6546387 48.1469394,49.93893 C47.5816244,50.2232214 46.9133764,50.3653671 46.1421952,50.3653671 C45.0965259,50.3653671 44.2828644,50.0974143 43.7012109,49.5615088 C43.1195573,49.0256032 42.8287305,48.2838316 42.8287305,47.3361937 C42.8287305,46.2970598 43.261703,45.4899338 44.1276479,44.9148157 C44.9935928,44.3396975 46.2467622,44.0357999 47.8871559,44.0031227 L49.916408,43.9443038 L49.916408,43.238477 C49.916408,42.2254848 49.7105418,41.4608391 49.2988095,40.9445399 C48.8870772,40.4282407 48.2237308,40.170091 47.3087701,40.170091 C46.3219196,40.170091 45.2991243,40.4445792 44.2403841,40.9935556 L43.8776676,40.1504847 C45.0475101,39.6015083 46.2042818,39.3270201 47.3479827,39.3270201 C48.5178253,39.3270201 49.3919395,39.6309178 49.9703253,40.2387131 C50.5487112,40.8465084 50.8379041,41.7941462 50.8379041,43.0816266 L50.8379041,50.1693041 L50.1222741,50.1693041 Z M46.2010141,49.4830836 C47.3381795,49.4830836 48.2351678,49.1579458 48.8919788,48.5076701 C49.5487899,47.8573945 49.8771954,46.9538709 49.8771954,45.7970992 L49.8771954,44.7481621 L48.0145969,44.8265873 C46.5179826,44.8984771 45.4510731,45.1321188 44.8138684,45.5275125 C44.1766636,45.9229063 43.8580613,46.5388708 43.8580613,47.3754063 C43.8580613,48.0420205 44.0622936,48.5599536 44.4707581,48.9292056 C44.8792227,49.2984576 45.4559747,49.4830836 46.2010141,49.4830836 Z" id="Shape" fill="#000000"></path>
                        <path d="M61.575936,47.3950126 C61.575936,48.3491859 61.2132195,49.0827883 60.4877864,49.5958198 C59.7623533,50.1088513 58.7330225,50.3653671 57.3997941,50.3653671 C55.9750696,50.3653671 54.8444397,50.1464301 54.0079042,49.708556 L54.0079042,48.659619 C55.0797153,49.1955245 56.2103452,49.4634773 57.3997941,49.4634773 C58.4519989,49.4634773 59.2509556,49.2886544 59.7966643,48.9390087 C60.342373,48.5893631 60.6152273,48.1237134 60.6152273,47.5420599 C60.6152273,47.0061543 60.3979242,46.5552094 59.9633178,46.1892252 C59.5287115,45.8232409 58.8147154,45.4637921 57.8213296,45.1108787 C56.7560539,44.7252881 56.0077468,44.3936148 55.5764082,44.1158589 C55.1450696,43.838103 54.8199318,43.5244022 54.6009948,43.1747565 C54.3820578,42.8251108 54.2725893,42.3986738 54.2725893,41.8954454 C54.2725893,41.0981226 54.6075302,40.4674533 55.2774121,40.0034375 C55.9472941,39.5394217 56.8834949,39.3074138 58.0860146,39.3074138 C59.2362509,39.3074138 60.3276683,39.5230831 61.3602667,39.9544217 L60.9975502,40.8367052 C59.9518808,40.4053666 58.981369,40.1896973 58.0860146,40.1896973 C57.216802,40.1896973 56.5273138,40.3334769 56.01755,40.6210359 C55.5077862,40.908595 55.2529043,41.3072564 55.2529043,41.8170202 C55.2529043,42.3725321 55.4506011,42.8169415 55.8459948,43.1502486 C56.2413886,43.4835558 57.0142035,43.8560755 58.1644398,44.2678078 C59.1251485,44.6141857 59.8244399,44.9262527 60.2623139,45.2040086 C60.700188,45.4817645 61.0285935,45.7970992 61.2475305,46.1500126 C61.4664675,46.502926 61.575936,46.917926 61.575936,47.3950126 Z" id="Path" fill="#000000"></path>
                        <path d="M72.4316058,50.1693041 L72.4316058,43.2580833 C72.4316058,42.1862722 72.2061333,41.4069218 71.7551884,40.920032 C71.3042435,40.4331422 70.6049521,40.1896973 69.6573143,40.1896973 C68.3829048,40.1896973 67.4499717,40.5115674 66.858515,41.1553076 C66.2670583,41.7990478 65.9713299,42.8430833 65.9713299,44.2874141 L65.9713299,50.1693041 L65.000818,50.1693041 L65.000818,34.9156026 L65.9713299,34.9156026 L65.9713299,39.7681619 L65.9223141,41.1307997 L65.9909362,41.1307997 C66.3895976,40.4903273 66.892826,40.0263115 67.5006213,39.7387524 C68.1084166,39.4511934 68.8632592,39.3074138 69.765149,39.3074138 C72.1832593,39.3074138 73.3923145,40.6046974 73.3923145,43.1992644 L73.3923145,50.1693041 L72.4316058,50.1693041 Z" id="Path" fill="#000000"></path>
                        <path d="M82.0226691,39.3074138 C83.512748,39.3074138 84.6352086,39.7763312 85.3900512,40.7141659 C86.1448937,41.6520006 86.522315,43.0228077 86.522315,44.8265873 C86.522315,46.5976897 86.1252874,47.9635953 85.3312323,48.924304 C84.5371771,49.8850127 83.4212519,50.3653671 81.9834565,50.3653671 C81.2253463,50.3653671 80.5423935,50.2085167 79.9345982,49.8948159 C79.3268029,49.5811151 78.8464485,49.1367056 78.4935351,48.5615875 L78.4053068,48.5615875 L78.1308186,50.1693041 L77.5230233,50.1693041 L77.5230233,34.9156026 L78.4935351,34.9156026 L78.4935351,38.7486343 C78.4935351,39.3237524 78.4804643,39.8531225 78.4543225,40.3367446 L78.4249131,41.1700123 L78.4935351,41.1700123 C78.898732,40.5295399 79.3872556,40.0589887 79.9591061,39.7583587 C80.5309565,39.4577288 81.2188108,39.3074138 82.0226691,39.3074138 Z M82.0030628,40.1896973 C80.7482596,40.1896973 79.8496376,40.5491462 79.3071966,41.2680438 C78.7647556,41.9869415 78.4935351,43.1731227 78.4935351,44.8265873 L78.4935351,44.9932409 C78.4935351,46.6009575 78.7761926,47.7544614 79.3415076,48.4537528 C79.9068226,49.1530442 80.7874722,49.5026899 81.9834565,49.5026899 C83.1467637,49.5026899 84.0225118,49.0958591 84.6107008,48.2821977 C85.1988898,47.4685362 85.4929843,46.3101307 85.4929843,44.806981 C85.4929843,41.7287919 84.3296771,40.1896973 82.0030628,40.1896973 Z" id="Shape" fill="#000000"></path>
                        <path d="M98.9660951,44.8265873 C98.9660951,46.5650126 98.5445596,47.9227489 97.7014887,48.8997961 C96.8584178,49.8768434 95.6951107,50.3653671 94.2115673,50.3653671 C93.2770003,50.3653671 92.4535357,50.1398946 91.7411735,49.6889497 C91.0288112,49.2380048 90.4831026,48.5909969 90.1040474,47.747926 C89.7249923,46.9048551 89.5354647,45.9310755 89.5354647,44.8265873 C89.5354647,43.088162 89.9570002,41.7336935 90.8000711,40.7631816 C91.643142,39.7926698 92.7999137,39.3074138 94.2703862,39.3074138 C95.7343233,39.3074138 96.8829257,39.7992052 97.7161934,40.7827879 C98.5494612,41.7663706 98.9660951,43.1143038 98.9660951,44.8265873 Z M90.5549923,44.8265873 C90.5549923,46.2905244 90.8768624,47.4325914 91.5206026,48.2527882 C92.1643428,49.0729851 93.0744019,49.4830836 94.2507799,49.4830836 C95.4271579,49.4830836 96.337217,49.0729851 96.9809572,48.2527882 C97.6246974,47.4325914 97.9465675,46.2905244 97.9465675,44.8265873 C97.9465675,43.3561148 97.6214296,42.2156817 96.971154,41.4052879 C96.3208784,40.5948942 95.4075516,40.1896973 94.2311736,40.1896973 C93.0547956,40.1896973 92.1480042,40.5932603 91.5107995,41.4003864 C90.8735947,42.2075124 90.5549923,43.3495794 90.5549923,44.8265873 Z" id="Shape" fill="#000000"></path>
                        <path d="M109.066922,50.1693041 L108.821843,48.4831623 L108.743418,48.4831623 C108.207513,49.1693828 107.656902,49.6546387 107.091588,49.93893 C106.526273,50.2232214 105.858024,50.3653671 105.086843,50.3653671 C104.041174,50.3653671 103.227513,50.0974143 102.645859,49.5615088 C102.064205,49.0256032 101.773379,48.2838316 101.773379,47.3361937 C101.773379,46.2970598 102.206351,45.4899338 103.072296,44.9148157 C103.938241,44.3396975 105.19141,44.0357999 106.831804,44.0031227 L108.861056,43.9443038 L108.861056,43.238477 C108.861056,42.2254848 108.65519,41.4608391 108.243458,40.9445399 C107.831725,40.4282407 107.168379,40.170091 106.253418,40.170091 C105.266568,40.170091 104.243772,40.4445792 103.185032,40.9935556 L102.822316,40.1504847 C103.992158,39.6015083 105.14893,39.3270201 106.292631,39.3270201 C107.462473,39.3270201 108.336588,39.6309178 108.914973,40.2387131 C109.493359,40.8465084 109.782552,41.7941462 109.782552,43.0816266 L109.782552,50.1693041 L109.066922,50.1693041 Z M105.145662,49.4830836 C106.282828,49.4830836 107.179816,49.1579458 107.836627,48.5076701 C108.493438,47.8573945 108.821843,46.9538709 108.821843,45.7970992 L108.821843,44.7481621 L106.959245,44.8265873 C105.462631,44.8984771 104.395721,45.1321188 103.758516,45.5275125 C103.121312,45.9229063 102.802709,46.5388708 102.802709,47.3754063 C102.802709,48.0420205 103.006942,48.5599536 103.415406,48.9292056 C103.823871,49.2984576 104.400623,49.4830836 105.145662,49.4830836 Z" id="Shape" fill="#000000"></path>
                        <path d="M118.109009,39.3074138 C118.559954,39.3074138 119.043576,39.3531619 119.559875,39.4446579 L119.373616,40.3759572 C118.929206,40.2648548 118.468458,40.2093036 117.991371,40.2093036 C117.082946,40.2093036 116.337907,40.5948942 115.756253,41.3660753 C115.1746,42.1372565 114.883773,43.111036 114.883773,44.2874141 L114.883773,50.1693041 L113.913261,50.1693041 L113.913261,39.51328 L114.736726,39.51328 L114.834757,41.4346974 L114.903379,41.4346974 C115.341253,40.6504454 115.808537,40.0998351 116.30523,39.7828666 C116.801923,39.4658981 117.403182,39.3074138 118.109009,39.3074138 Z" id="Path" fill="#000000"></path>
                        <path d="M125.906096,39.3074138 C126.677277,39.3074138 127.343891,39.4479257 127.905939,39.7289493 C128.467986,40.0099729 128.971214,40.4903273 129.415624,41.1700123 L129.474443,41.1700123 C129.43523,40.3465477 129.415624,39.5394217 129.415624,38.7486343 L129.415624,34.9156026 L130.376333,34.9156026 L130.376333,50.1693041 L129.739128,50.1693041 L129.494049,48.5419812 L129.415624,48.5419812 C128.60523,49.7575718 127.441923,50.3653671 125.925702,50.3653671 C124.45523,50.3653671 123.331135,49.9078867 122.553419,48.9929261 C121.775702,48.0779654 121.386844,46.744737 121.386844,44.9932409 C121.386844,43.1502486 121.772435,41.7418628 122.543616,40.7680832 C123.314797,39.7943036 124.435624,39.3074138 125.906096,39.3074138 Z M125.906096,40.1896973 C124.742789,40.1896973 123.868675,40.5981619 123.283754,41.4150911 C122.698832,42.2320203 122.406372,43.4182014 122.406372,44.9736346 C122.406372,47.9930048 123.579482,49.5026899 125.925702,49.5026899 C127.128222,49.5026899 128.010506,49.1530442 128.572553,48.4537528 C129.1346,47.7544614 129.415624,46.6009575 129.415624,44.9932409 L129.415624,44.8265873 C129.415624,43.1796581 129.139502,41.9951108 128.587258,41.2729454 C128.035014,40.55078 127.141293,40.1896973 125.906096,40.1896973 Z" id="Shape" fill="#000000"></path>
                    </g>
                </g>
            </g>
        </g>
    </g>
</svg>